:SAMPLES-PER-SECOND 30
:FULLY-SPECIFIED
:DEGREES
473
root  9.72917 39.1668 -9.27136 135.408 -87.5134 -142.632
RightUpLeg  12.751 -10.2883 -2.93677
RightLeg  8.77312 -9.76941 0.704447
RightFoot  -12.3777 -0.0693023 1.60125
RightToes  2.32829e-010 0 -3.6325e-017
Spine  10.4358 0.244536 12.7343
Spine1  5.04999 2.89046 -6.84606
HEad  53.065 -22.8898 -134.887
LeftShoulder1  0.460061 2.21084 -29.478
LeftArm  -0.593173 17.6727 -43.8144
LeftForeArm  18.7896 -18.4707 -4.94815
LeftHand  -0.0254613 2.98604 0.475094
RightShoulder  -0.407119 -4.79654 24.5524
RightArm  24.4701 -0.101629 46.7223
RightForeArm  -8.17898 24.5849 5.66709
RightHand  -0.71986 5.17371 -8.19037
LeftUpLeg  -14.1374 13.6418 -2.96319
LeftLeg  8.66754 0.252363 -1.7274
LeftFoot  -1.1842 0.204651 -2.21517
LeftToes  -3.54706e-010 1.16038e-010 5.28031e-012
474
root  8.54062 39.0413 -9.48846 125.617 -87.5571 -132.64
RightUpLeg  15.3547 -9.90847 -2.52681
RightLeg  7.26413 -10.3776 0.966494
RightFoot  -13.5066 -0.0425363 2.54856
RightToes  2.32829e-010 0 -3.6325e-017
Spine  10.0368 0.370317 12.4258
Spine1  5.18603 3.04226 -7.58559
HEad  52.8095 -23.3318 -134.337
LeftShoulder1  0.478985 2.14296 -29.0788
LeftArm  -1.87431 18.1234 -43.9582
LeftForeArm  20.5031 -16.89 -5.40691
LeftHand  -0.0221484 3.79825 0.0362242
RightShoulder  -0.418221 -4.82894 24.611
RightArm  24.794 0.762402 47.2918
RightForeArm  -8.2174 23.5719 5.47308
RightHand  -0.637337 4.68429 -7.62172
LeftUpLeg  -11.3944 3.77477 -0.414593
LeftLeg  -4.20278 15.3811 -4.38151
LeftFoot  -1.39175 0.397043 -4.49199
LeftToes  -3.54706e-010 1.16038e-010 5.28031e-012
475
root  7.24993 38.7824 -9.64697 106.778 -87.5075 -114.006
RightUpLeg  17.9157 -9.98421 -2.39958
RightLeg  7.35194 -10.5857 1.14243
RightFoot  -15.2962 0.0214178 3.63611
RightToes  2.32829e-010 0 -3.6325e-017
Spine  9.726 0.426418 11.2325
Spine1  5.38037 2.74514 -6.59771
HEad  52.2481 -23.6383 -133.805
LeftShoulder1  0.490168 2.12918 -29.5562
LeftArm  -3.23208 18.1189 -43.2333
LeftForeArm  22.6531 -14.8022 -6.01811
LeftHand  -0.00830859 4.21656 -1.43239
RightShoulder  -0.357132 -4.65179 24.0693
RightArm  24.7027 1.22836 48.0874
RightForeArm  -8.62184 21.8957 5.38712
RightHand  -0.702493 5.2103 -7.98407
LeftUpLeg  -11.2707 2.53233 -1.24813
LeftLeg  -8.04015 22.1355 -3.61188
LeftFoot  -2.20995 0.454065 -5.48308
LeftToes  -3.54706e-010 1.16038e-010 5.28031e-012
476
root  5.91206 38.4722 -9.81406 64.6551 -87.4245 -71.9236
RightUpLeg  20.4336 -10.3898 -2.61972
RightLeg  7.66931 -11.2584 1.7292
RightFoot  -17.1419 0.129959 4.83298
RightToes  2.32829e-010 0 -3.6325e-017
Spine  9.13482 0.244161 9.66547
Spine1  5.78956 2.29798 -6.00332
HEad  52.6747 -23.1476 -133.038
LeftShoulder1  0.536664 1.97312 -28.9429
LeftArm  -5.19437 17.6724 -43.2513
LeftForeArm  26.7789 -12.2996 -6.55397
LeftHand  0.00503505 4.2371 -3.01327
RightShoulder  -0.448884 -4.91913 24.8465
RightArm  24.0327 1.30111 47.9704
RightForeArm  -8.44172 20.2393 5.60098
RightHand  -0.670653 4.96333 -7.80522
LeftUpLeg  -12.0596 2.95848 -1.83678
LeftLeg  -5.61433 25.5243 -4.00213
LeftFoot  -1.20714 0.319288 -3.44152
LeftToes  -3.54706e-010 1.16038e-010 5.28031e-012
477
root  4.4652 38.2172 -9.92248 34.4971 -87.3936 -42.171
RightUpLeg  23.2619 -12.0613 -4.90764
RightLeg  8.81671 -9.39134 2.27337
RightFoot  -18.5809 0.320184 7.06147
RightToes  2.32829e-010 0 -3.6325e-017
Spine  8.78774 0.395659 7.56091
Spine1  6.30739 2.39947 -6.00965
HEad  52.6246 -22.6884 -131.998
LeftShoulder1  0.549278 1.92921 -28.7716
LeftArm  -6.25735 17.3872 -42.3705
LeftForeArm  29.082 -10.5964 -6.8049
LeftHand  -0.0451203 5.8023 -2.70355
RightShoulder  -0.44974 -4.90765 25.1636
RightArm  21.5296 -0.0627077 48.2956
RightForeArm  -7.10113 18.2305 5.96389
RightHand  -0.679318 5.09063 -7.81954
LeftUpLeg  -13.3206 3.85779 -3.02668
LeftLeg  1.37883 23.8418 -2.84453
LeftFoot  1.97596 -0.397772 2.69569
LeftToes  -3.54706e-010 1.16038e-010 5.28031e-012
478
root  2.96924 38.017 -9.93573 9.70789 -87.6199 -17.7089
RightUpLeg  25.2361 -15.7886 -8.77503
RightLeg  12.0625 -3.74848 1.46155
RightFoot  -19.318 0.619191 10.6284
RightToes  2.32829e-010 0 -3.6325e-017
Spine  8.10901 0.928545 5.65158
Spine1  7.01286 2.92849 -6.55346
HEad  52.9025 -21.8186 -131.674
LeftShoulder1  0.440797 2.26391 -29.4501
LeftArm  -6.53371 17.0035 -40.5973
LeftForeArm  29.3569 -9.48625 -6.93592
LeftHand  -0.029743 5.30295 -2.05505
RightShoulder  -0.463688 -4.92401 25.7531
RightArm  19.0523 -1.38281 48.4818
RightForeArm  -5.10934 15.5316 6.61214
RightHand  -0.623013 4.13368 -7.85002
LeftUpLeg  -15.3687 5.52683 -5.07087
LeftLeg  8.81268 20.5237 -0.271011
LeftFoot  5.87351 -1.98717 13.1384
LeftToes  -3.54706e-010 1.16038e-010 5.28031e-012
479
root  1.50003 37.8064 -9.87143 -29.0691 -86.9935 20.3161
RightUpLeg  25.5534 -18.6177 -13.2805
RightLeg  19.284 1.5001 0.178114
RightFoot  -19.3006 1.03702 16.9503
RightToes  2.32829e-010 0 -3.6325e-017
Spine  8.6901 1.28165 3.57271
Spine1  6.60775 3.2655 -7.84676
HEad  52.4021 -20.6034 -130.731
LeftShoulder1  0.308152 2.65105 -30.0081
LeftArm  -7.17735 16.5519 -38.7794
LeftForeArm  29.0745 -8.58573 -6.73373
LeftHand  -0.0207723 4.84641 -2.31593
RightShoulder  -0.547531 -5.12926 26.9182
RightArm  16.921 -2.66517 48.558
RightForeArm  -1.29954 12.203 7.40558
RightHand  -0.47798 3.06769 -6.76235
LeftUpLeg  -16.5908 10.2576 -8.98121
LeftLeg  16.8188 15.2159 3.79109
LeftFoot  3.67209 -2.17761 16.2154
LeftToes  -3.54706e-010 1.16038e-010 5.28031e-012
480
root  0.163057 37.6866 -9.76368 -40.2071 -85.218 31.0121
RightUpLeg  22.0366 -15.5592 -14.2407
RightLeg  30.2688 0.0277715 -0.264054
RightFoot  -15.0859 0.638885 23.4588
RightToes  2.32829e-010 0 -3.6325e-017
Spine  9.25327 1.44818 2.09753
Spine1  6.25526 3.34316 -9.01756
HEad  51.9188 -19.891 -130.216
LeftShoulder1  0.304742 2.66517 -30.2507
LeftArm  -8.00997 15.6513 -38.1036
LeftForeArm  27.5395 -7.53096 -6.37085
LeftHand  -0.0343076 5.41875 -1.63082
RightShoulder  -0.537458 -5.08732 27.142
RightArm  14.4547 -4.07802 49.419
RightForeArm  4.37276 8.82117 7.6743
RightHand  -0.341195 1.86158 -5.66196
LeftUpLeg  -16.1451 12.4091 -11.3563
LeftLeg  20.8565 12.2356 5.38145
LeftFoot  0.92893 -1.80322 16.5886
LeftToes  -3.54706e-010 1.16038e-010 5.28031e-012
